<svg width="1608.75" height="842" version="1.1" baseProfile="full" viewbox="0 0 1608.75 842" xmlns="http://www.w3.org/2000/svg" xmlns:xlink="http://www.w3.org/1999/xlink" xmlns:ev="http://www.w3.org/2001/xml-events" style="font-weight:bold; font-size:12pt; font-family:'Calibri', Helvetica, sans-serif;;stroke-width:3;stroke-linejoin:round;stroke-linecap:round"><path d="M754 126.5 L754 228.5 L754 248.5 L754 248.5 " style="stroke:#33322E;fill:none;stroke-dasharray:none;"></path>
<path d="M748.7 235.2 L754 241.8 L759.3 235.2 L754 248.5 Z" style="stroke:#33322E;fill:#33322E;stroke-dasharray:none;"></path>
<path d="M754 310.5 L754 330.5 L754 350.5 L754 350.5 " style="stroke:#33322E;fill:none;stroke-dasharray:none;"></path>
<path d="M748.7 337.2 L754 343.8 L759.3 337.2 L754 350.5 Z" style="stroke:#33322E;fill:#33322E;stroke-dasharray:none;"></path>
<path d="M809.5 380.1 L893.8 401.5 L893.8 421.5 L893.8 421.5 " style="stroke:#33322E;fill:none;stroke-dasharray:none;"></path>
<path d="M888.4 408.2 L893.8 414.8 L899.1 408.2 L893.8 421.5 Z" style="stroke:#33322E;fill:#33322E;stroke-dasharray:none;"></path>
<path d="M698.5 380.1 L614.3 401.5 L614.3 421.5 L614.3 421.5 " style="stroke:#33322E;fill:none;stroke-dasharray:none;"></path>
<path d="M608.9 408.2 L614.3 414.8 L619.6 408.2 L614.3 421.5 Z" style="stroke:#33322E;fill:#33322E;stroke-dasharray:none;"></path>
<path d="M893.8 452.5 L893.8 472.5 L893.8 508 L893.8 508 " style="stroke:#33322E;fill:none;stroke-dasharray:none;"></path>
<path d="M888.4 494.7 L893.8 501.3 L899.1 494.7 L893.8 508 Z" style="stroke:#33322E;fill:#33322E;stroke-dasharray:none;"></path>
<path d="M852.7 539 L758.8 574.5 L758.8 594.5 L758.8 594.5 " style="stroke:#33322E;fill:none;stroke-dasharray:none;"></path>
<path d="M753.4 581.2 L758.8 587.8 L764.1 581.2 L758.8 594.5 Z" style="stroke:#33322E;fill:#33322E;stroke-dasharray:none;"></path>
<path d="M934.8 539 L1028.8 574.5 L1028.8 610 L1028.8 610 L1028.8 645.5 L1028.8 645.5 L1028.8 681 L1028.8 681 " style="stroke:#33322E;fill:none;stroke-dasharray:none;"></path>
<path d="M1023.4 667.7 L1028.8 674.3 L1034.1 667.7 L1028.8 681 Z" style="stroke:#33322E;fill:#33322E;stroke-dasharray:none;"></path>
<path d="M758.8 625.5 L758.8 645.5 L758.8 665.5 L758.8 665.5 " style="stroke:#33322E;fill:none;stroke-dasharray:none;"></path>
<path d="M753.4 652.2 L758.8 658.8 L764.1 652.2 L758.8 665.5 Z" style="stroke:#33322E;fill:#33322E;stroke-dasharray:none;"></path>
<path d="M758.8 727.5 L758.8 747.5 L875.3 767.5 L875.3 767.5 " style="stroke:#33322E;fill:none;stroke-dasharray:none;"></path>
<path d="M861.3 770.5 L868.7 766.4 L863.1 760 L875.3 767.5 Z" style="stroke:#33322E;fill:#33322E;stroke-dasharray:none;"></path>
<path d="M1028.8 712 L1028.8 747.5 L1039.4 767.5 L1039.4 767.5 " style="stroke:#33322E;fill:none;stroke-dasharray:none;"></path>
<path d="M1028.4 758.3 L1036.3 761.6 L1037.9 753.2 L1039.4 767.5 Z" style="stroke:#33322E;fill:#33322E;stroke-dasharray:none;"></path>
<path d="M614.3 452.5 L614.3 472.5 L614.3 492.5 L614.3 492.5 " style="stroke:#33322E;fill:none;stroke-dasharray:none;"></path>
<path d="M608.9 479.2 L614.3 485.8 L619.6 479.2 L614.3 492.5 Z" style="stroke:#33322E;fill:#33322E;stroke-dasharray:none;"></path>
<path d="M1104.5 126.5 L1104.5 228.5 L1104.5 248.5 L1104.5 248.5 " style="stroke:#33322E;fill:none;stroke-dasharray:none;"></path>
<path d="M1099.2 235.2 L1104.5 241.8 L1109.8 235.2 L1104.5 248.5 Z" style="stroke:#33322E;fill:#33322E;stroke-dasharray:none;"></path>
<path d="M1353.3 625.5 L1353.3 645.5 L1353.3 665.5 L1353.3 665.5 " style="stroke:#33322E;fill:none;stroke-dasharray:none;"></path>
<path d="M1347.9 652.2 L1353.3 658.8 L1358.6 652.2 L1353.3 665.5 Z" style="stroke:#33322E;fill:#33322E;stroke-dasharray:none;"></path>
<path d="M1353.3 727.5 L1353.3 747.5 L1236.7 767.5 L1236.7 767.5 " style="stroke:#33322E;fill:none;stroke-dasharray:none;"></path>
<path d="M1248.9 760 L1243.3 766.4 L1250.7 770.5 L1236.7 767.5 Z" style="stroke:#33322E;fill:#33322E;stroke-dasharray:none;"></path>
<rect x="13.5" y="13.5" height="195" width="664" style="stroke:#33322E;fill:#eee8d5;stroke-dasharray:none;"></rect>
<text x="345.5" y="35" style="text-anchor: middle;">activities</text>
<path d="M13.5 44.5 L677.5 44.5" style="stroke:#33322E;fill:none;stroke-dasharray:none;"></path>
<rect x="26.5" y="57.5" height="138" width="287" style="stroke:#33322E;fill:#fdf6e3;stroke-dasharray:none;"></rect>
<text x="170" y="79" style="text-anchor: middle;">AdviceListActivity</text>
<path d="M26.5 88.5 L313.5 88.5" style="stroke:#33322E;fill:none;stroke-dasharray:none;"></path>
<text x="34.5" y="110" style="font-weight:normal;">+ Has a drawer</text>
<path d="M26.5 119.5 L313.5 119.5" style="stroke:#33322E;fill:none;stroke-dasharray:none;"></path>
<text x="34.5" y="141" style="font-weight:normal;">Fragments:</text>
<text x="34.5" y="156" style="font-weight:normal;">- LoadingFragment</text>
<text x="34.5" y="171" style="font-weight:normal;">- ManualAdviceImportFragment</text>
<text x="34.5" y="186" style="font-weight:normal;">- AdviceListFragment</text>
<rect x="353.5" y="88.5" height="77" width="311" style="stroke:#33322E;fill:#fdf6e3;stroke-dasharray:none;"></rect>
<text x="509" y="110" style="text-anchor: middle;">FirebaseUIAuthActivity</text>
<path d="M353.5 119.5 L664.5 119.5" style="stroke:#33322E;fill:none;stroke-dasharray:none;"></path>
<text x="361.5" y="141" style="font-weight:normal;">+ Has no drawer</text>
<text x="361.5" y="156" style="font-weight:normal;">+ Performs sign in and sign out</text>
<rect x="565.5" y="248.5" height="62" width="377" style="stroke:#33322E;fill:#eee8d5;stroke-dasharray:none;"></rect>
<text x="754" y="270" style="text-anchor: middle;">Check if logged in</text>
<path d="M565.5 279.5 L942.5 279.5" style="stroke:#33322E;fill:none;stroke-dasharray:none;"></path>
<text x="573.5" y="301" style="font-weight:normal;">+ AdviceListActivity &gt; LoadingFragment</text>
<rect x="570.5" y="665.5" height="62" width="377" style="stroke:#33322E;fill:#eee8d5;stroke-dasharray:none;"></rect>
<text x="759" y="687" style="text-anchor: middle;">Add advice</text>
<path d="M570.5 696.5 L947.5 696.5" style="stroke:#33322E;fill:none;stroke-dasharray:none;"></path>
<text x="578.5" y="718" style="font-weight:normal;">+ AdviceListActivity &gt; LoadingFragment</text>
<rect x="853.5" y="767.5" height="62" width="406" style="stroke:#33322E;fill:#eee8d5;stroke-dasharray:none;"></rect>
<text x="1056.5" y="789" style="text-anchor: middle;">Show advice list</text>
<path d="M853.5 798.5 L1259.5 798.5" style="stroke:#33322E;fill:none;stroke-dasharray:none;"></path>
<text x="861.5" y="820" style="font-weight:normal;">+ AdviceListActivity &gt; AdviceListFragment</text>
<rect x="492.5" y="492.5" height="62" width="244" style="stroke:#33322E;fill:#eee8d5;stroke-dasharray:none;"></rect>
<text x="614.5" y="514" style="text-anchor: middle;">Ask for auth</text>
<path d="M492.5 523.5 L736.5 523.5" style="stroke:#33322E;fill:none;stroke-dasharray:none;"></path>
<text x="500.5" y="545" style="font-weight:normal;">+ FirebaseAuthUIActivity</text>
<rect x="982.5" y="248.5" height="62" width="244" style="stroke:#33322E;fill:#eee8d5;stroke-dasharray:none;"></rect>
<text x="1104.5" y="270" style="text-anchor: middle;">Sign out</text>
<path d="M982.5 279.5 L1226.5 279.5" style="stroke:#33322E;fill:none;stroke-dasharray:none;"></path>
<text x="990.5" y="301" style="font-weight:normal;">+ FirebaseUIAuthActivity</text>
<rect x="1110.5" y="665.5" height="62" width="486" style="stroke:#33322E;fill:#eee8d5;stroke-dasharray:none;"></rect>
<text x="1353.5" y="687" style="text-anchor: middle;">Manual import advice</text>
<path d="M1110.5 696.5 L1596.5 696.5" style="stroke:#33322E;fill:none;stroke-dasharray:none;"></path>
<text x="1118.5" y="718" style="font-weight:normal;">+ AdviceListActivity &gt; ManualAdviceImportFragment</text>
<path d="M725.5 95.5 L790.5 95.5 L782.5 126.5 L717.5 126.5 Z" style="stroke:#33322E;fill:#eee8d5;stroke-dasharray:none;"></path>
<text x="754" y="117" style="font-weight:normal;text-anchor: middle;">Launch</text>
<path d="M1031.5 95.5 L1186.5 95.5 L1178.5 126.5 L1023.5 126.5 Z" style="stroke:#33322E;fill:#eee8d5;stroke-dasharray:none;"></path>
<text x="1105" y="117" style="font-weight:normal;text-anchor: middle;">Menu &gt; sign out</text>
<path d="M1222.5 594.5 L1491.5 594.5 L1483.5 625.5 L1214.5 625.5 Z" style="stroke:#33322E;fill:#eee8d5;stroke-dasharray:none;"></path>
<text x="1353" y="616" style="font-weight:normal;text-anchor: middle;">Menu &gt; manual import advice</text>
<path d="M754 342.5 L817.5 366 L754 389.5 L690.5 366 Z" style="stroke:#33322E;fill:#eee8d5;stroke-dasharray:none;"></path>
<text x="754" y="372" style="font-weight:normal;text-anchor: middle;">Logged in?</text>
<rect x="847.5" y="421.5" rx="15.5" ry="15.5" height="31" width="92" style="stroke:#33322E;fill:#eee8d5;stroke-dasharray:none;"></rect>
<text x="893.5" y="443" style="font-weight:normal;text-anchor: middle;">Yes (li)</text>
<rect x="572.5" y="421.5" rx="15.5" ry="15.5" height="31" width="83" style="stroke:#33322E;fill:#eee8d5;stroke-dasharray:none;"></rect>
<text x="614" y="443" style="font-weight:normal;text-anchor: middle;">No (li)</text>
<path d="M893.8 500.5 L1019.5 523.5 L893.8 547.5 L768.5 523.5 Z" style="stroke:#33322E;fill:#eee8d5;stroke-dasharray:none;"></path>
<text x="894" y="530" style="font-weight:normal;text-anchor: middle;">Launch via advice link?</text>
<rect x="712.5" y="594.5" rx="15.5" ry="15.5" height="31" width="92" style="stroke:#33322E;fill:#eee8d5;stroke-dasharray:none;"></rect>
<text x="758.5" y="616" style="font-weight:normal;text-anchor: middle;">Yes (al)</text>
<rect x="987.5" y="681.5" rx="15.5" ry="15.5" height="31" width="83" style="stroke:#33322E;fill:#eee8d5;stroke-dasharray:none;"></rect>
<text x="1029" y="703" style="font-weight:normal;text-anchor: middle;">No (al)</text></svg>